<svg width="76" height="76" viewBox="0 0 76 76" fill="none" xmlns="http://www.w3.org/2000/svg">
<path d="M7.75635 37.9785H69.1827" stroke="#44475A" stroke-width="1.52171"/>
<path d="M7.75635 46.5H41.9136" stroke="#44475A" stroke-width="1.52171"/>
<path d="M7.75635 42.2393H56.1163" stroke="#44475A" stroke-width="1.52171"/>
<path d="M12.524 32.583C12.692 32.583 12.8227 32.6297 12.916 32.723C13.0131 32.8164 13.0617 32.9396 13.0617 33.0927V34H7.42717V33.496C7.42717 33.3989 7.4477 33.2943 7.48878 33.1823C7.52985 33.0665 7.59893 32.962 7.69601 32.8687L10.1044 30.4547C10.3098 30.2493 10.4909 30.0533 10.6477 29.8666C10.8045 29.6761 10.9352 29.4913 11.0397 29.3121C11.1443 29.1291 11.2227 28.9443 11.275 28.7576C11.3273 28.5709 11.3534 28.3749 11.3534 28.1695C11.3534 27.8073 11.26 27.5329 11.0733 27.3462C10.8867 27.1557 10.6234 27.0605 10.2836 27.0605C10.1343 27.0605 9.99611 27.0829 9.86916 27.1277C9.74594 27.1688 9.63392 27.2267 9.5331 27.3014C9.43602 27.376 9.35201 27.4638 9.28106 27.5646C9.21012 27.6654 9.15784 27.7756 9.12424 27.8951C9.05703 28.0818 8.96554 28.2068 8.84979 28.2703C8.73778 28.3301 8.57722 28.3431 8.36812 28.3095L7.55039 28.1639C7.61013 27.7681 7.72215 27.4208 7.88644 27.1221C8.05073 26.8234 8.2561 26.5751 8.50254 26.3772C8.74898 26.1793 9.03089 26.0318 9.34827 25.9347C9.66566 25.8339 10.0073 25.7835 10.3732 25.7835C10.7578 25.7835 11.107 25.8414 11.4206 25.9571C11.738 26.0692 12.0087 26.2279 12.2327 26.4332C12.4568 26.6349 12.6304 26.8794 12.7536 27.1669C12.8768 27.4545 12.9384 27.7718 12.9384 28.1191C12.9384 28.4178 12.8955 28.6941 12.8096 28.948C12.7237 29.2019 12.6061 29.4446 12.4568 29.6761C12.3111 29.9039 12.1413 30.1261 11.9471 30.3426C11.7529 30.5592 11.5476 30.7776 11.331 30.998L9.60591 32.7622C9.79634 32.7062 9.98491 32.6633 10.1716 32.6334C10.3583 32.5998 10.5338 32.583 10.6981 32.583H12.524ZM19.7836 29.9338C19.7836 30.6432 19.7071 31.2593 19.554 31.7821C19.4009 32.3048 19.1899 32.738 18.9211 33.0815C18.6522 33.4213 18.333 33.6752 17.9633 33.8432C17.5974 34.0075 17.2016 34.0896 16.7759 34.0896C16.3503 34.0896 15.9545 34.0075 15.5885 33.8432C15.2226 33.6752 14.9071 33.4213 14.642 33.0815C14.3769 32.738 14.1678 32.3048 14.0147 31.7821C13.8653 31.2593 13.7907 30.6432 13.7907 29.9338C13.7907 29.2243 13.8653 28.6101 14.0147 28.0911C14.1678 27.5683 14.3769 27.1371 14.642 26.7973C14.9071 26.4538 15.2226 26.1999 15.5885 26.0356C15.9545 25.8675 16.3503 25.7835 16.7759 25.7835C17.2016 25.7835 17.5974 25.8675 17.9633 26.0356C18.333 26.1999 18.6522 26.4538 18.9211 26.7973C19.1899 27.1371 19.4009 27.5683 19.554 28.0911C19.7071 28.6101 19.7836 29.2243 19.7836 29.9338ZM18.1874 29.9338C18.1874 29.3588 18.1463 28.8845 18.0641 28.5112C17.9857 28.1378 17.8812 27.8428 17.7505 27.6262C17.6198 27.4096 17.4686 27.2584 17.2968 27.1725C17.1288 27.0867 16.9552 27.0437 16.7759 27.0437C16.5967 27.0437 16.4231 27.0867 16.255 27.1725C16.0908 27.2584 15.9433 27.4096 15.8126 27.6262C15.6856 27.8428 15.5829 28.1378 15.5045 28.5112C15.4261 28.8845 15.3869 29.3588 15.3869 29.9338C15.3869 30.5125 15.4261 30.9886 15.5045 31.362C15.5829 31.7354 15.6856 32.0304 15.8126 32.247C15.9433 32.4635 16.0908 32.6147 16.255 32.7006C16.4231 32.7865 16.5967 32.8294 16.7759 32.8294C16.9552 32.8294 17.1288 32.7865 17.2968 32.7006C17.4686 32.6147 17.6198 32.4635 17.7505 32.247C17.8812 32.0304 17.9857 31.7354 18.0641 31.362C18.1463 30.9886 18.1874 30.5125 18.1874 29.9338ZM25.5198 32.583C25.6878 32.583 25.8185 32.6297 25.9119 32.723C26.0089 32.8164 26.0575 32.9396 26.0575 33.0927V34H20.423V33.496C20.423 33.3989 20.4435 33.2943 20.4846 33.1823C20.5257 33.0665 20.5947 32.962 20.6918 32.8687L23.1002 30.4547C23.3056 30.2493 23.4867 30.0533 23.6435 29.8666C23.8003 29.6761 23.931 29.4913 24.0356 29.3121C24.1401 29.1291 24.2185 28.9443 24.2708 28.7576C24.3231 28.5709 24.3492 28.3749 24.3492 28.1695C24.3492 27.8073 24.2559 27.5329 24.0692 27.3462C23.8825 27.1557 23.6192 27.0605 23.2794 27.0605C23.1301 27.0605 22.9919 27.0829 22.865 27.1277C22.7418 27.1688 22.6297 27.2267 22.5289 27.3014C22.4318 27.376 22.3478 27.4638 22.2769 27.5646C22.2059 27.6654 22.1537 27.7756 22.1201 27.8951C22.0528 28.0818 21.9614 28.2068 21.8456 28.2703C21.7336 28.3301 21.573 28.3431 21.3639 28.3095L20.5462 28.1639C20.606 27.7681 20.718 27.4208 20.8823 27.1221C21.0466 26.8234 21.2519 26.5751 21.4984 26.3772C21.7448 26.1793 22.0267 26.0318 22.3441 25.9347C22.6615 25.8339 23.0031 25.7835 23.3691 25.7835C23.7537 25.7835 24.1028 25.8414 24.4164 25.9571C24.7338 26.0692 25.0045 26.2279 25.2286 26.4332C25.4526 26.6349 25.6262 26.8794 25.7494 27.1669C25.8727 27.4545 25.9343 27.7718 25.9343 28.1191C25.9343 28.4178 25.8913 28.6941 25.8054 28.948C25.7196 29.2019 25.6019 29.4446 25.4526 29.6761C25.307 29.9039 25.1371 30.1261 24.9429 30.3426C24.7487 30.5592 24.5434 30.7776 24.3268 30.998L22.6017 32.7622C22.7922 32.7062 22.9807 32.6633 23.1674 32.6334C23.3541 32.5998 23.5296 32.583 23.6939 32.583H25.5198ZM32.7794 29.9338C32.7794 30.6432 32.7029 31.2593 32.5498 31.7821C32.3967 32.3048 32.1857 32.738 31.9169 33.0815C31.6481 33.4213 31.3288 33.6752 30.9591 33.8432C30.5932 34.0075 30.1974 34.0896 29.7718 34.0896C29.3461 34.0896 28.9503 34.0075 28.5844 33.8432C28.2184 33.6752 27.9029 33.4213 27.6378 33.0815C27.3727 32.738 27.1636 32.3048 27.0105 31.7821C26.8612 31.2593 26.7865 30.6432 26.7865 29.9338C26.7865 29.2243 26.8612 28.6101 27.0105 28.0911C27.1636 27.5683 27.3727 27.1371 27.6378 26.7973C27.9029 26.4538 28.2184 26.1999 28.5844 26.0356C28.9503 25.8675 29.3461 25.7835 29.7718 25.7835C30.1974 25.7835 30.5932 25.8675 30.9591 26.0356C31.3288 26.1999 31.6481 26.4538 31.9169 26.7973C32.1857 27.1371 32.3967 27.5683 32.5498 28.0911C32.7029 28.6101 32.7794 29.2243 32.7794 29.9338ZM31.1832 29.9338C31.1832 29.3588 31.1421 28.8845 31.06 28.5112C30.9815 28.1378 30.877 27.8428 30.7463 27.6262C30.6156 27.4096 30.4644 27.2584 30.2926 27.1725C30.1246 27.0867 29.951 27.0437 29.7718 27.0437C29.5925 27.0437 29.4189 27.0867 29.2509 27.1725C29.0866 27.2584 28.9391 27.4096 28.8084 27.6262C28.6814 27.8428 28.5788 28.1378 28.5004 28.5112C28.4219 28.8845 28.3827 29.3588 28.3827 29.9338C28.3827 30.5125 28.4219 30.9886 28.5004 31.362C28.5788 31.7354 28.6814 32.0304 28.8084 32.247C28.9391 32.4635 29.0866 32.6147 29.2509 32.7006C29.4189 32.7865 29.5925 32.8294 29.7718 32.8294C29.951 32.8294 30.1246 32.7865 30.2926 32.7006C30.4644 32.6147 30.6156 32.4635 30.7463 32.247C30.877 32.0304 30.9815 31.7354 31.06 31.362C31.1421 30.9886 31.1832 30.5125 31.1832 29.9338Z" fill="black"/>
<path d="M3 3H73V73H3V3Z" stroke="black" stroke-width="5"/>
</svg>
