<svg width="1728" height="1117" viewBox="0 0 1728 1117" fill="none" xmlns="http://www.w3.org/2000/svg">
<rect width="1728" height="1117" fill="#FBFBFB"/>
<circle cx="4.5" cy="4.5" r="1.5" fill="#B0B0B0"/>
<circle cx="4.5" cy="4.5" r="1.5" fill="#B0B0B0"/>
<circle cx="52.5" cy="4.5" r="1.5" fill="#B0B0B0"/>
<circle cx="100.5" cy="4.5" r="1.5" fill="#B0B0B0"/>
<circle cx="148.5" cy="4.5" r="1.5" fill="#B0B0B0"/>
<circle cx="196.5" cy="4.5" r="1.5" fill="#B0B0B0"/>
<circle cx="244.5" cy="4.5" r="1.5" fill="#B0B0B0"/>
<circle cx="292.5" cy="4.5" r="1.5" fill="#B0B0B0"/>
<circle cx="340.5" cy="4.5" r="1.5" fill="#B0B0B0"/>
<circle cx="388.5" cy="4.5" r="1.5" fill="#B0B0B0"/>
<circle cx="436.5" cy="4.5" r="1.5" fill="#B0B0B0"/>
<circle cx="484.5" cy="4.5" r="1.5" fill="#B0B0B0"/>
<circle cx="532.5" cy="4.5" r="1.5" fill="#B0B0B0"/>
<circle cx="580.5" cy="4.5" r="1.5" fill="#B0B0B0"/>
<circle cx="628.5" cy="4.5" r="1.5" fill="#B0B0B0"/>
<circle cx="676.5" cy="4.5" r="1.5" fill="#B0B0B0"/>
<circle cx="724.5" cy="4.5" r="1.5" fill="#B0B0B0"/>
<circle cx="772.5" cy="4.5" r="1.5" fill="#B0B0B0"/>
<circle cx="820.5" cy="4.5" r="1.5" fill="#B0B0B0"/>
<circle cx="868.5" cy="4.5" r="1.5" fill="#B0B0B0"/>
<circle cx="916.5" cy="4.5" r="1.5" fill="#B0B0B0"/>
<circle cx="964.5" cy="4.5" r="1.5" fill="#B0B0B0"/>
<circle cx="1012.5" cy="4.5" r="1.5" fill="#B0B0B0"/>
<circle cx="1060.5" cy="4.5" r="1.5" fill="#B0B0B0"/>
<circle cx="1108.5" cy="4.5" r="1.5" fill="#B0B0B0"/>
<circle cx="1156.5" cy="4.5" r="1.5" fill="#B0B0B0"/>
<circle cx="1204.5" cy="4.5" r="1.5" fill="#B0B0B0"/>
<circle cx="1252.5" cy="4.5" r="1.5" fill="#B0B0B0"/>
<circle cx="1300.5" cy="4.5" r="1.5" fill="#B0B0B0"/>
<circle cx="1348.5" cy="4.5" r="1.5" fill="#B0B0B0"/>
<circle cx="1396.5" cy="4.5" r="1.5" fill="#B0B0B0"/>
<circle cx="1444.5" cy="4.5" r="1.5" fill="#B0B0B0"/>
<circle cx="1492.5" cy="4.5" r="1.5" fill="#B0B0B0"/>
<circle cx="1540.5" cy="4.5" r="1.5" fill="#B0B0B0"/>
<circle cx="1588.5" cy="4.5" r="1.5" fill="#B0B0B0"/>
<circle cx="1636.5" cy="4.5" r="1.5" fill="#B0B0B0"/>
<circle cx="1684.5" cy="4.5" r="1.5" fill="#B0B0B0"/>
<circle cx="4.5" cy="100.5" r="1.5" fill="#B0B0B0"/>
<circle cx="4.5" cy="100.5" r="1.5" fill="#B0B0B0"/>
<circle cx="52.5" cy="100.5" r="1.5" fill="#B0B0B0"/>
<circle cx="100.5" cy="100.5" r="1.5" fill="#B0B0B0"/>
<circle cx="148.5" cy="100.5" r="1.5" fill="#B0B0B0"/>
<circle cx="196.5" cy="100.5" r="1.5" fill="#B0B0B0"/>
<circle cx="244.5" cy="100.5" r="1.5" fill="#B0B0B0"/>
<circle cx="292.5" cy="100.5" r="1.5" fill="#B0B0B0"/>
<circle cx="340.5" cy="100.5" r="1.5" fill="#B0B0B0"/>
<circle cx="388.5" cy="100.5" r="1.5" fill="#B0B0B0"/>
<circle cx="436.5" cy="100.5" r="1.5" fill="#B0B0B0"/>
<circle cx="484.5" cy="100.5" r="1.5" fill="#B0B0B0"/>
<circle cx="532.5" cy="100.5" r="1.5" fill="#B0B0B0"/>
<circle cx="580.5" cy="100.5" r="1.5" fill="#B0B0B0"/>
<circle cx="628.5" cy="100.5" r="1.5" fill="#B0B0B0"/>
<circle cx="676.5" cy="100.5" r="1.5" fill="#B0B0B0"/>
<circle cx="724.5" cy="100.5" r="1.5" fill="#B0B0B0"/>
<circle cx="772.5" cy="100.5" r="1.5" fill="#B0B0B0"/>
<circle cx="820.5" cy="100.5" r="1.5" fill="#B0B0B0"/>
<circle cx="868.5" cy="100.5" r="1.5" fill="#B0B0B0"/>
<circle cx="916.5" cy="100.5" r="1.5" fill="#B0B0B0"/>
<circle cx="964.5" cy="100.5" r="1.5" fill="#B0B0B0"/>
<circle cx="1012.5" cy="100.5" r="1.5" fill="#B0B0B0"/>
<circle cx="1060.5" cy="100.5" r="1.5" fill="#B0B0B0"/>
<circle cx="1108.5" cy="100.5" r="1.5" fill="#B0B0B0"/>
<circle cx="1156.5" cy="100.5" r="1.5" fill="#B0B0B0"/>
<circle cx="1204.5" cy="100.5" r="1.5" fill="#B0B0B0"/>
<circle cx="1252.5" cy="100.5" r="1.5" fill="#B0B0B0"/>
<circle cx="1300.5" cy="100.5" r="1.5" fill="#B0B0B0"/>
<circle cx="1348.5" cy="100.5" r="1.5" fill="#B0B0B0"/>
<circle cx="1396.5" cy="100.5" r="1.5" fill="#B0B0B0"/>
<circle cx="1444.5" cy="100.5" r="1.5" fill="#B0B0B0"/>
<circle cx="1492.5" cy="100.5" r="1.5" fill="#B0B0B0"/>
<circle cx="1540.5" cy="100.5" r="1.5" fill="#B0B0B0"/>
<circle cx="1588.5" cy="100.5" r="1.5" fill="#B0B0B0"/>
<circle cx="1636.5" cy="100.5" r="1.5" fill="#B0B0B0"/>
<circle cx="1684.5" cy="100.5" r="1.5" fill="#B0B0B0"/>
<circle cx="4.5" cy="196.5" r="1.5" fill="#B0B0B0"/>
<circle cx="4.5" cy="196.5" r="1.5" fill="#B0B0B0"/>
<circle cx="52.5" cy="196.5" r="1.5" fill="#B0B0B0"/>
<circle cx="100.5" cy="196.5" r="1.5" fill="#B0B0B0"/>
<circle cx="148.5" cy="196.5" r="1.5" fill="#B0B0B0"/>
<circle cx="196.5" cy="196.5" r="1.5" fill="#B0B0B0"/>
<circle cx="244.5" cy="196.5" r="1.5" fill="#B0B0B0"/>
<circle cx="292.5" cy="196.5" r="1.5" fill="#B0B0B0"/>
<circle cx="340.5" cy="196.5" r="1.5" fill="#B0B0B0"/>
<circle cx="388.5" cy="196.5" r="1.5" fill="#B0B0B0"/>
<circle cx="436.5" cy="196.5" r="1.5" fill="#B0B0B0"/>
<circle cx="484.5" cy="196.5" r="1.5" fill="#B0B0B0"/>
<circle cx="532.5" cy="196.5" r="1.5" fill="#B0B0B0"/>
<circle cx="580.5" cy="196.5" r="1.5" fill="#B0B0B0"/>
<circle cx="628.5" cy="196.5" r="1.5" fill="#B0B0B0"/>
<circle cx="676.5" cy="196.5" r="1.5" fill="#B0B0B0"/>
<circle cx="724.5" cy="196.5" r="1.5" fill="#B0B0B0"/>
<circle cx="772.5" cy="196.5" r="1.5" fill="#B0B0B0"/>
<circle cx="820.5" cy="196.5" r="1.5" fill="#B0B0B0"/>
<circle cx="868.5" cy="196.5" r="1.5" fill="#B0B0B0"/>
<circle cx="916.5" cy="196.5" r="1.5" fill="#B0B0B0"/>
<circle cx="964.5" cy="196.5" r="1.5" fill="#B0B0B0"/>
<circle cx="1012.5" cy="196.5" r="1.5" fill="#B0B0B0"/>
<circle cx="1060.5" cy="196.5" r="1.5" fill="#B0B0B0"/>
<circle cx="1108.5" cy="196.5" r="1.5" fill="#B0B0B0"/>
<circle cx="1156.5" cy="196.5" r="1.5" fill="#B0B0B0"/>
<circle cx="1204.5" cy="196.5" r="1.5" fill="#B0B0B0"/>
<circle cx="1252.5" cy="196.5" r="1.5" fill="#B0B0B0"/>
<circle cx="1300.5" cy="196.5" r="1.5" fill="#B0B0B0"/>
<circle cx="1348.5" cy="196.5" r="1.5" fill="#B0B0B0"/>
<circle cx="1396.5" cy="196.5" r="1.5" fill="#B0B0B0"/>
<circle cx="1444.5" cy="196.5" r="1.5" fill="#B0B0B0"/>
<circle cx="1492.5" cy="196.5" r="1.5" fill="#B0B0B0"/>
<circle cx="1540.5" cy="196.5" r="1.5" fill="#B0B0B0"/>
<circle cx="1588.5" cy="196.5" r="1.5" fill="#B0B0B0"/>
<circle cx="1636.5" cy="196.5" r="1.5" fill="#B0B0B0"/>
<circle cx="1684.5" cy="196.5" r="1.5" fill="#B0B0B0"/>
<circle cx="4.5" cy="292.5" r="1.5" fill="#B0B0B0"/>
<circle cx="4.5" cy="292.5" r="1.5" fill="#B0B0B0"/>
<circle cx="52.5" cy="292.5" r="1.5" fill="#B0B0B0"/>
<circle cx="100.5" cy="292.5" r="1.5" fill="#B0B0B0"/>
<circle cx="148.5" cy="292.5" r="1.5" fill="#B0B0B0"/>
<circle cx="196.5" cy="292.5" r="1.5" fill="#B0B0B0"/>
<circle cx="244.5" cy="292.5" r="1.5" fill="#B0B0B0"/>
<circle cx="292.5" cy="292.5" r="1.5" fill="#B0B0B0"/>
<circle cx="340.5" cy="292.5" r="1.5" fill="#B0B0B0"/>
<circle cx="388.5" cy="292.5" r="1.5" fill="#B0B0B0"/>
<circle cx="436.5" cy="292.5" r="1.5" fill="#B0B0B0"/>
<circle cx="484.5" cy="292.5" r="1.5" fill="#B0B0B0"/>
<circle cx="532.5" cy="292.5" r="1.5" fill="#B0B0B0"/>
<circle cx="580.5" cy="292.5" r="1.5" fill="#B0B0B0"/>
<circle cx="628.5" cy="292.5" r="1.5" fill="#B0B0B0"/>
<circle cx="676.5" cy="292.5" r="1.5" fill="#B0B0B0"/>
<circle cx="724.5" cy="292.5" r="1.5" fill="#B0B0B0"/>
<circle cx="772.5" cy="292.5" r="1.5" fill="#B0B0B0"/>
<circle cx="820.5" cy="292.5" r="1.5" fill="#B0B0B0"/>
<circle cx="868.5" cy="292.5" r="1.5" fill="#B0B0B0"/>
<circle cx="916.5" cy="292.5" r="1.5" fill="#B0B0B0"/>
<circle cx="964.5" cy="292.5" r="1.5" fill="#B0B0B0"/>
<circle cx="1012.5" cy="292.5" r="1.5" fill="#B0B0B0"/>
<circle cx="1060.5" cy="292.5" r="1.5" fill="#B0B0B0"/>
<circle cx="1108.5" cy="292.5" r="1.5" fill="#B0B0B0"/>
<circle cx="1156.5" cy="292.5" r="1.5" fill="#B0B0B0"/>
<circle cx="1204.5" cy="292.5" r="1.5" fill="#B0B0B0"/>
<circle cx="1252.5" cy="292.5" r="1.5" fill="#B0B0B0"/>
<circle cx="1300.5" cy="292.5" r="1.5" fill="#B0B0B0"/>
<circle cx="1348.5" cy="292.5" r="1.5" fill="#B0B0B0"/>
<circle cx="1396.5" cy="292.5" r="1.5" fill="#B0B0B0"/>
<circle cx="1444.5" cy="292.5" r="1.5" fill="#B0B0B0"/>
<circle cx="1492.5" cy="292.5" r="1.5" fill="#B0B0B0"/>
<circle cx="1540.5" cy="292.5" r="1.5" fill="#B0B0B0"/>
<circle cx="1588.5" cy="292.5" r="1.5" fill="#B0B0B0"/>
<circle cx="1636.5" cy="292.5" r="1.5" fill="#B0B0B0"/>
<circle cx="1684.5" cy="292.5" r="1.5" fill="#B0B0B0"/>
<circle cx="4.5" cy="388.5" r="1.5" fill="#B0B0B0"/>
<circle cx="4.5" cy="388.5" r="1.5" fill="#B0B0B0"/>
<circle cx="52.5" cy="388.5" r="1.5" fill="#B0B0B0"/>
<circle cx="100.5" cy="388.5" r="1.5" fill="#B0B0B0"/>
<circle cx="148.5" cy="388.5" r="1.5" fill="#B0B0B0"/>
<circle cx="196.5" cy="388.5" r="1.5" fill="#B0B0B0"/>
<circle cx="244.5" cy="388.5" r="1.5" fill="#B0B0B0"/>
<circle cx="292.5" cy="388.5" r="1.5" fill="#B0B0B0"/>
<circle cx="340.5" cy="388.5" r="1.5" fill="#B0B0B0"/>
<circle cx="388.5" cy="388.5" r="1.5" fill="#B0B0B0"/>
<circle cx="436.5" cy="388.5" r="1.5" fill="#B0B0B0"/>
<circle cx="484.5" cy="388.5" r="1.5" fill="#B0B0B0"/>
<circle cx="532.5" cy="388.5" r="1.5" fill="#B0B0B0"/>
<circle cx="580.5" cy="388.5" r="1.5" fill="#B0B0B0"/>
<circle cx="628.5" cy="388.5" r="1.5" fill="#B0B0B0"/>
<circle cx="676.5" cy="388.5" r="1.5" fill="#B0B0B0"/>
<circle cx="724.5" cy="388.5" r="1.5" fill="#B0B0B0"/>
<circle cx="772.5" cy="388.5" r="1.5" fill="#B0B0B0"/>
<circle cx="820.5" cy="388.5" r="1.5" fill="#B0B0B0"/>
<circle cx="868.5" cy="388.5" r="1.5" fill="#B0B0B0"/>
<circle cx="916.5" cy="388.5" r="1.5" fill="#B0B0B0"/>
<circle cx="964.5" cy="388.5" r="1.5" fill="#B0B0B0"/>
<circle cx="1012.5" cy="388.5" r="1.5" fill="#B0B0B0"/>
<circle cx="1060.5" cy="388.5" r="1.5" fill="#B0B0B0"/>
<circle cx="1108.5" cy="388.5" r="1.5" fill="#B0B0B0"/>
<circle cx="1156.5" cy="388.5" r="1.5" fill="#B0B0B0"/>
<circle cx="1204.5" cy="388.5" r="1.5" fill="#B0B0B0"/>
<circle cx="1252.5" cy="388.5" r="1.5" fill="#B0B0B0"/>
<circle cx="1300.5" cy="388.5" r="1.5" fill="#B0B0B0"/>
<circle cx="1348.5" cy="388.5" r="1.5" fill="#B0B0B0"/>
<circle cx="1396.5" cy="388.5" r="1.5" fill="#B0B0B0"/>
<circle cx="1444.5" cy="388.5" r="1.5" fill="#B0B0B0"/>
<circle cx="1492.5" cy="388.5" r="1.5" fill="#B0B0B0"/>
<circle cx="1540.5" cy="388.5" r="1.5" fill="#B0B0B0"/>
<circle cx="1588.5" cy="388.5" r="1.5" fill="#B0B0B0"/>
<circle cx="1636.5" cy="388.5" r="1.5" fill="#B0B0B0"/>
<circle cx="1684.5" cy="388.5" r="1.5" fill="#B0B0B0"/>
<circle cx="4.5" cy="484.5" r="1.5" fill="#B0B0B0"/>
<circle cx="4.5" cy="484.5" r="1.5" fill="#B0B0B0"/>
<circle cx="52.5" cy="484.5" r="1.5" fill="#B0B0B0"/>
<circle cx="100.5" cy="484.5" r="1.5" fill="#B0B0B0"/>
<circle cx="148.5" cy="484.5" r="1.5" fill="#B0B0B0"/>
<circle cx="196.5" cy="484.5" r="1.5" fill="#B0B0B0"/>
<circle cx="244.5" cy="484.5" r="1.5" fill="#B0B0B0"/>
<circle cx="292.5" cy="484.5" r="1.5" fill="#B0B0B0"/>
<circle cx="340.5" cy="484.5" r="1.5" fill="#B0B0B0"/>
<circle cx="388.5" cy="484.5" r="1.5" fill="#B0B0B0"/>
<circle cx="436.5" cy="484.5" r="1.5" fill="#B0B0B0"/>
<circle cx="484.5" cy="484.5" r="1.5" fill="#B0B0B0"/>
<circle cx="532.5" cy="484.5" r="1.5" fill="#B0B0B0"/>
<circle cx="580.5" cy="484.5" r="1.5" fill="#B0B0B0"/>
<circle cx="628.5" cy="484.5" r="1.5" fill="#B0B0B0"/>
<circle cx="676.5" cy="484.5" r="1.5" fill="#B0B0B0"/>
<circle cx="724.5" cy="484.5" r="1.5" fill="#B0B0B0"/>
<circle cx="772.5" cy="484.5" r="1.5" fill="#B0B0B0"/>
<circle cx="820.5" cy="484.5" r="1.5" fill="#B0B0B0"/>
<circle cx="868.5" cy="484.5" r="1.5" fill="#B0B0B0"/>
<circle cx="916.5" cy="484.5" r="1.5" fill="#B0B0B0"/>
<circle cx="964.5" cy="484.5" r="1.5" fill="#B0B0B0"/>
<circle cx="1012.5" cy="484.5" r="1.5" fill="#B0B0B0"/>
<circle cx="1060.5" cy="484.5" r="1.5" fill="#B0B0B0"/>
<circle cx="1108.5" cy="484.5" r="1.5" fill="#B0B0B0"/>
<circle cx="1156.5" cy="484.5" r="1.5" fill="#B0B0B0"/>
<circle cx="1204.5" cy="484.5" r="1.5" fill="#B0B0B0"/>
<circle cx="1252.5" cy="484.5" r="1.5" fill="#B0B0B0"/>
<circle cx="1300.5" cy="484.5" r="1.5" fill="#B0B0B0"/>
<circle cx="1348.5" cy="484.5" r="1.5" fill="#B0B0B0"/>
<circle cx="1396.5" cy="484.5" r="1.5" fill="#B0B0B0"/>
<circle cx="1444.5" cy="484.5" r="1.5" fill="#B0B0B0"/>
<circle cx="1492.5" cy="484.5" r="1.5" fill="#B0B0B0"/>
<circle cx="1540.5" cy="484.5" r="1.5" fill="#B0B0B0"/>
<circle cx="1588.5" cy="484.5" r="1.5" fill="#B0B0B0"/>
<circle cx="1636.5" cy="484.5" r="1.5" fill="#B0B0B0"/>
<circle cx="1684.5" cy="484.5" r="1.5" fill="#B0B0B0"/>
<circle cx="4.5" cy="580.5" r="1.5" fill="#B0B0B0"/>
<circle cx="4.5" cy="580.5" r="1.5" fill="#B0B0B0"/>
<circle cx="52.5" cy="580.5" r="1.5" fill="#B0B0B0"/>
<circle cx="100.5" cy="580.5" r="1.5" fill="#B0B0B0"/>
<circle cx="148.5" cy="580.5" r="1.5" fill="#B0B0B0"/>
<circle cx="196.5" cy="580.5" r="1.5" fill="#B0B0B0"/>
<circle cx="244.5" cy="580.5" r="1.5" fill="#B0B0B0"/>
<circle cx="292.5" cy="580.5" r="1.5" fill="#B0B0B0"/>
<circle cx="340.5" cy="580.5" r="1.5" fill="#B0B0B0"/>
<circle cx="388.5" cy="580.5" r="1.5" fill="#B0B0B0"/>
<circle cx="436.5" cy="580.5" r="1.5" fill="#B0B0B0"/>
<circle cx="484.5" cy="580.5" r="1.5" fill="#B0B0B0"/>
<circle cx="532.5" cy="580.5" r="1.5" fill="#B0B0B0"/>
<circle cx="580.5" cy="580.5" r="1.5" fill="#B0B0B0"/>
<circle cx="628.5" cy="580.5" r="1.5" fill="#B0B0B0"/>
<circle cx="676.5" cy="580.5" r="1.5" fill="#B0B0B0"/>
<circle cx="724.5" cy="580.5" r="1.5" fill="#B0B0B0"/>
<circle cx="772.5" cy="580.5" r="1.5" fill="#B0B0B0"/>
<circle cx="820.5" cy="580.5" r="1.5" fill="#B0B0B0"/>
<circle cx="868.5" cy="580.5" r="1.5" fill="#B0B0B0"/>
<circle cx="916.5" cy="580.5" r="1.5" fill="#B0B0B0"/>
<circle cx="964.5" cy="580.5" r="1.5" fill="#B0B0B0"/>
<circle cx="1012.5" cy="580.5" r="1.5" fill="#B0B0B0"/>
<circle cx="1060.5" cy="580.5" r="1.5" fill="#B0B0B0"/>
<circle cx="1108.5" cy="580.5" r="1.5" fill="#B0B0B0"/>
<circle cx="1156.5" cy="580.5" r="1.5" fill="#B0B0B0"/>
<circle cx="1204.5" cy="580.5" r="1.5" fill="#B0B0B0"/>
<circle cx="1252.5" cy="580.5" r="1.5" fill="#B0B0B0"/>
<circle cx="1300.5" cy="580.5" r="1.5" fill="#B0B0B0"/>
<circle cx="1348.5" cy="580.5" r="1.5" fill="#B0B0B0"/>
<circle cx="1396.5" cy="580.5" r="1.5" fill="#B0B0B0"/>
<circle cx="1444.5" cy="580.5" r="1.5" fill="#B0B0B0"/>
<circle cx="1492.5" cy="580.5" r="1.5" fill="#B0B0B0"/>
<circle cx="1540.5" cy="580.5" r="1.5" fill="#B0B0B0"/>
<circle cx="1588.5" cy="580.5" r="1.5" fill="#B0B0B0"/>
<circle cx="1636.5" cy="580.5" r="1.5" fill="#B0B0B0"/>
<circle cx="1684.5" cy="580.5" r="1.5" fill="#B0B0B0"/>
<circle cx="4.5" cy="676.5" r="1.5" fill="#B0B0B0"/>
<circle cx="4.5" cy="676.5" r="1.5" fill="#B0B0B0"/>
<circle cx="52.5" cy="676.5" r="1.5" fill="#B0B0B0"/>
<circle cx="100.5" cy="676.5" r="1.5" fill="#B0B0B0"/>
<circle cx="148.5" cy="676.5" r="1.5" fill="#B0B0B0"/>
<circle cx="196.5" cy="676.5" r="1.5" fill="#B0B0B0"/>
<circle cx="244.5" cy="676.5" r="1.5" fill="#B0B0B0"/>
<circle cx="292.5" cy="676.5" r="1.5" fill="#B0B0B0"/>
<circle cx="340.5" cy="676.5" r="1.5" fill="#B0B0B0"/>
<circle cx="388.5" cy="676.5" r="1.5" fill="#B0B0B0"/>
<circle cx="436.5" cy="676.5" r="1.5" fill="#B0B0B0"/>
<circle cx="484.5" cy="676.5" r="1.5" fill="#B0B0B0"/>
<circle cx="532.5" cy="676.5" r="1.5" fill="#B0B0B0"/>
<circle cx="580.5" cy="676.5" r="1.5" fill="#B0B0B0"/>
<circle cx="628.5" cy="676.5" r="1.5" fill="#B0B0B0"/>
<circle cx="676.5" cy="676.5" r="1.5" fill="#B0B0B0"/>
<circle cx="724.5" cy="676.5" r="1.5" fill="#B0B0B0"/>
<circle cx="772.5" cy="676.5" r="1.5" fill="#B0B0B0"/>
<circle cx="820.5" cy="676.5" r="1.5" fill="#B0B0B0"/>
<circle cx="868.5" cy="676.5" r="1.5" fill="#B0B0B0"/>
<circle cx="916.5" cy="676.5" r="1.5" fill="#B0B0B0"/>
<circle cx="964.5" cy="676.5" r="1.5" fill="#B0B0B0"/>
<circle cx="1012.5" cy="676.5" r="1.5" fill="#B0B0B0"/>
<circle cx="1060.5" cy="676.5" r="1.5" fill="#B0B0B0"/>
<circle cx="1108.5" cy="676.5" r="1.5" fill="#B0B0B0"/>
<circle cx="1156.5" cy="676.5" r="1.5" fill="#B0B0B0"/>
<circle cx="1204.5" cy="676.5" r="1.5" fill="#B0B0B0"/>
<circle cx="1252.5" cy="676.5" r="1.5" fill="#B0B0B0"/>
<circle cx="1300.5" cy="676.5" r="1.5" fill="#B0B0B0"/>
<circle cx="1348.5" cy="676.5" r="1.5" fill="#B0B0B0"/>
<circle cx="1396.5" cy="676.5" r="1.5" fill="#B0B0B0"/>
<circle cx="1444.5" cy="676.5" r="1.5" fill="#B0B0B0"/>
<circle cx="1492.5" cy="676.5" r="1.5" fill="#B0B0B0"/>
<circle cx="1540.5" cy="676.5" r="1.5" fill="#B0B0B0"/>
<circle cx="1588.5" cy="676.5" r="1.5" fill="#B0B0B0"/>
<circle cx="1636.5" cy="676.5" r="1.5" fill="#B0B0B0"/>
<circle cx="1684.5" cy="676.5" r="1.5" fill="#B0B0B0"/>
<circle cx="4.5" cy="772.5" r="1.5" fill="#B0B0B0"/>
<circle cx="4.5" cy="772.5" r="1.5" fill="#B0B0B0"/>
<circle cx="52.5" cy="772.5" r="1.5" fill="#B0B0B0"/>
<circle cx="100.5" cy="772.5" r="1.5" fill="#B0B0B0"/>
<circle cx="148.5" cy="772.5" r="1.5" fill="#B0B0B0"/>
<circle cx="196.5" cy="772.5" r="1.5" fill="#B0B0B0"/>
<circle cx="244.5" cy="772.5" r="1.5" fill="#B0B0B0"/>
<circle cx="292.5" cy="772.5" r="1.5" fill="#B0B0B0"/>
<circle cx="340.5" cy="772.5" r="1.5" fill="#B0B0B0"/>
<circle cx="388.5" cy="772.5" r="1.5" fill="#B0B0B0"/>
<circle cx="436.5" cy="772.5" r="1.5" fill="#B0B0B0"/>
<circle cx="484.5" cy="772.5" r="1.5" fill="#B0B0B0"/>
<circle cx="532.5" cy="772.5" r="1.5" fill="#B0B0B0"/>
<circle cx="580.5" cy="772.5" r="1.5" fill="#B0B0B0"/>
<circle cx="628.5" cy="772.5" r="1.5" fill="#B0B0B0"/>
<circle cx="676.5" cy="772.5" r="1.5" fill="#B0B0B0"/>
<circle cx="724.5" cy="772.5" r="1.5" fill="#B0B0B0"/>
<circle cx="772.5" cy="772.5" r="1.5" fill="#B0B0B0"/>
<circle cx="820.5" cy="772.5" r="1.5" fill="#B0B0B0"/>
<circle cx="868.5" cy="772.5" r="1.5" fill="#B0B0B0"/>
<circle cx="916.5" cy="772.5" r="1.5" fill="#B0B0B0"/>
<circle cx="964.5" cy="772.5" r="1.5" fill="#B0B0B0"/>
<circle cx="1012.5" cy="772.5" r="1.5" fill="#B0B0B0"/>
<circle cx="1060.5" cy="772.5" r="1.5" fill="#B0B0B0"/>
<circle cx="1108.5" cy="772.5" r="1.5" fill="#B0B0B0"/>
<circle cx="1156.5" cy="772.5" r="1.5" fill="#B0B0B0"/>
<circle cx="1204.5" cy="772.5" r="1.5" fill="#B0B0B0"/>
<circle cx="1252.5" cy="772.5" r="1.5" fill="#B0B0B0"/>
<circle cx="1300.5" cy="772.5" r="1.5" fill="#B0B0B0"/>
<circle cx="1348.5" cy="772.5" r="1.5" fill="#B0B0B0"/>
<circle cx="1396.5" cy="772.5" r="1.5" fill="#B0B0B0"/>
<circle cx="1444.5" cy="772.5" r="1.5" fill="#B0B0B0"/>
<circle cx="1492.5" cy="772.5" r="1.5" fill="#B0B0B0"/>
<circle cx="1540.5" cy="772.5" r="1.5" fill="#B0B0B0"/>
<circle cx="1588.5" cy="772.5" r="1.5" fill="#B0B0B0"/>
<circle cx="1636.5" cy="772.5" r="1.5" fill="#B0B0B0"/>
<circle cx="1684.5" cy="772.5" r="1.5" fill="#B0B0B0"/>
<circle cx="4.5" cy="868.5" r="1.5" fill="#B0B0B0"/>
<circle cx="4.5" cy="868.5" r="1.5" fill="#B0B0B0"/>
<circle cx="52.5" cy="868.5" r="1.5" fill="#B0B0B0"/>
<circle cx="100.5" cy="868.5" r="1.5" fill="#B0B0B0"/>
<circle cx="148.5" cy="868.5" r="1.5" fill="#B0B0B0"/>
<circle cx="196.5" cy="868.5" r="1.5" fill="#B0B0B0"/>
<circle cx="244.5" cy="868.5" r="1.5" fill="#B0B0B0"/>
<circle cx="292.5" cy="868.5" r="1.5" fill="#B0B0B0"/>
<circle cx="340.5" cy="868.5" r="1.5" fill="#B0B0B0"/>
<circle cx="388.5" cy="868.5" r="1.5" fill="#B0B0B0"/>
<circle cx="436.5" cy="868.5" r="1.5" fill="#B0B0B0"/>
<circle cx="484.5" cy="868.5" r="1.5" fill="#B0B0B0"/>
<circle cx="532.5" cy="868.5" r="1.5" fill="#B0B0B0"/>
<circle cx="580.5" cy="868.5" r="1.5" fill="#B0B0B0"/>
<circle cx="628.5" cy="868.5" r="1.5" fill="#B0B0B0"/>
<circle cx="676.5" cy="868.5" r="1.5" fill="#B0B0B0"/>
<circle cx="724.5" cy="868.5" r="1.5" fill="#B0B0B0"/>
<circle cx="772.5" cy="868.5" r="1.5" fill="#B0B0B0"/>
<circle cx="820.5" cy="868.5" r="1.5" fill="#B0B0B0"/>
<circle cx="868.5" cy="868.5" r="1.5" fill="#B0B0B0"/>
<circle cx="916.5" cy="868.5" r="1.5" fill="#B0B0B0"/>
<circle cx="964.5" cy="868.5" r="1.5" fill="#B0B0B0"/>
<circle cx="1012.5" cy="868.5" r="1.5" fill="#B0B0B0"/>
<circle cx="1060.5" cy="868.5" r="1.5" fill="#B0B0B0"/>
<circle cx="1108.5" cy="868.5" r="1.5" fill="#B0B0B0"/>
<circle cx="1156.5" cy="868.5" r="1.5" fill="#B0B0B0"/>
<circle cx="1204.5" cy="868.5" r="1.5" fill="#B0B0B0"/>
<circle cx="1252.5" cy="868.5" r="1.5" fill="#B0B0B0"/>
<circle cx="1300.5" cy="868.5" r="1.5" fill="#B0B0B0"/>
<circle cx="1348.5" cy="868.5" r="1.5" fill="#B0B0B0"/>
<circle cx="1396.5" cy="868.5" r="1.5" fill="#B0B0B0"/>
<circle cx="1444.5" cy="868.5" r="1.5" fill="#B0B0B0"/>
<circle cx="1492.5" cy="868.5" r="1.5" fill="#B0B0B0"/>
<circle cx="1540.5" cy="868.5" r="1.5" fill="#B0B0B0"/>
<circle cx="1588.5" cy="868.5" r="1.5" fill="#B0B0B0"/>
<circle cx="1636.5" cy="868.5" r="1.5" fill="#B0B0B0"/>
<circle cx="1684.5" cy="868.5" r="1.5" fill="#B0B0B0"/>
<circle cx="4.5" cy="964.5" r="1.5" fill="#B0B0B0"/>
<circle cx="4.5" cy="964.5" r="1.5" fill="#B0B0B0"/>
<circle cx="52.5" cy="964.5" r="1.5" fill="#B0B0B0"/>
<circle cx="100.5" cy="964.5" r="1.5" fill="#B0B0B0"/>
<circle cx="148.5" cy="964.5" r="1.5" fill="#B0B0B0"/>
<circle cx="196.5" cy="964.5" r="1.5" fill="#B0B0B0"/>
<circle cx="244.5" cy="964.5" r="1.5" fill="#B0B0B0"/>
<circle cx="292.5" cy="964.5" r="1.5" fill="#B0B0B0"/>
<circle cx="340.5" cy="964.5" r="1.5" fill="#B0B0B0"/>
<circle cx="388.5" cy="964.5" r="1.5" fill="#B0B0B0"/>
<circle cx="436.5" cy="964.5" r="1.5" fill="#B0B0B0"/>
<circle cx="484.5" cy="964.5" r="1.5" fill="#B0B0B0"/>
<circle cx="532.5" cy="964.5" r="1.5" fill="#B0B0B0"/>
<circle cx="580.5" cy="964.5" r="1.5" fill="#B0B0B0"/>
<circle cx="628.5" cy="964.5" r="1.5" fill="#B0B0B0"/>
<circle cx="676.5" cy="964.5" r="1.5" fill="#B0B0B0"/>
<circle cx="724.5" cy="964.5" r="1.5" fill="#B0B0B0"/>
<circle cx="772.5" cy="964.5" r="1.5" fill="#B0B0B0"/>
<circle cx="820.5" cy="964.5" r="1.5" fill="#B0B0B0"/>
<circle cx="868.5" cy="964.5" r="1.5" fill="#B0B0B0"/>
<circle cx="916.5" cy="964.5" r="1.5" fill="#B0B0B0"/>
<circle cx="964.5" cy="964.5" r="1.5" fill="#B0B0B0"/>
<circle cx="1012.5" cy="964.5" r="1.5" fill="#B0B0B0"/>
<circle cx="1060.5" cy="964.5" r="1.5" fill="#B0B0B0"/>
<circle cx="1108.5" cy="964.5" r="1.5" fill="#B0B0B0"/>
<circle cx="1156.5" cy="964.5" r="1.5" fill="#B0B0B0"/>
<circle cx="1204.5" cy="964.5" r="1.5" fill="#B0B0B0"/>
<circle cx="1252.5" cy="964.5" r="1.5" fill="#B0B0B0"/>
<circle cx="1300.5" cy="964.5" r="1.5" fill="#B0B0B0"/>
<circle cx="1348.5" cy="964.5" r="1.5" fill="#B0B0B0"/>
<circle cx="1396.5" cy="964.5" r="1.5" fill="#B0B0B0"/>
<circle cx="1444.5" cy="964.5" r="1.5" fill="#B0B0B0"/>
<circle cx="1492.5" cy="964.5" r="1.5" fill="#B0B0B0"/>
<circle cx="1540.5" cy="964.5" r="1.5" fill="#B0B0B0"/>
<circle cx="1588.5" cy="964.5" r="1.5" fill="#B0B0B0"/>
<circle cx="1636.5" cy="964.5" r="1.5" fill="#B0B0B0"/>
<circle cx="1684.5" cy="964.5" r="1.5" fill="#B0B0B0"/>
<circle cx="4.5" cy="1060.5" r="1.5" fill="#B0B0B0"/>
<circle cx="4.5" cy="1060.5" r="1.5" fill="#B0B0B0"/>
<circle cx="52.5" cy="1060.5" r="1.5" fill="#B0B0B0"/>
<circle cx="100.5" cy="1060.5" r="1.5" fill="#B0B0B0"/>
<circle cx="148.5" cy="1060.5" r="1.5" fill="#B0B0B0"/>
<circle cx="196.5" cy="1060.5" r="1.5" fill="#B0B0B0"/>
<circle cx="244.5" cy="1060.5" r="1.5" fill="#B0B0B0"/>
<circle cx="292.5" cy="1060.5" r="1.5" fill="#B0B0B0"/>
<circle cx="340.5" cy="1060.5" r="1.5" fill="#B0B0B0"/>
<circle cx="388.5" cy="1060.5" r="1.5" fill="#B0B0B0"/>
<circle cx="436.5" cy="1060.5" r="1.5" fill="#B0B0B0"/>
<circle cx="484.5" cy="1060.5" r="1.5" fill="#B0B0B0"/>
<circle cx="532.5" cy="1060.5" r="1.5" fill="#B0B0B0"/>
<circle cx="580.5" cy="1060.5" r="1.5" fill="#B0B0B0"/>
<circle cx="628.5" cy="1060.5" r="1.5" fill="#B0B0B0"/>
<circle cx="676.5" cy="1060.5" r="1.5" fill="#B0B0B0"/>
<circle cx="724.5" cy="1060.5" r="1.5" fill="#B0B0B0"/>
<circle cx="772.5" cy="1060.5" r="1.5" fill="#B0B0B0"/>
<circle cx="820.5" cy="1060.5" r="1.5" fill="#B0B0B0"/>
<circle cx="868.5" cy="1060.5" r="1.5" fill="#B0B0B0"/>
<circle cx="916.5" cy="1060.5" r="1.5" fill="#B0B0B0"/>
<circle cx="964.5" cy="1060.5" r="1.5" fill="#B0B0B0"/>
<circle cx="1012.5" cy="1060.5" r="1.5" fill="#B0B0B0"/>
<circle cx="1060.5" cy="1060.5" r="1.5" fill="#B0B0B0"/>
<circle cx="1108.5" cy="1060.5" r="1.5" fill="#B0B0B0"/>
<circle cx="1156.5" cy="1060.5" r="1.5" fill="#B0B0B0"/>
<circle cx="1204.5" cy="1060.5" r="1.5" fill="#B0B0B0"/>
<circle cx="1252.5" cy="1060.5" r="1.5" fill="#B0B0B0"/>
<circle cx="1300.5" cy="1060.5" r="1.5" fill="#B0B0B0"/>
<circle cx="1348.5" cy="1060.5" r="1.5" fill="#B0B0B0"/>
<circle cx="1396.5" cy="1060.5" r="1.5" fill="#B0B0B0"/>
<circle cx="1444.5" cy="1060.5" r="1.5" fill="#B0B0B0"/>
<circle cx="1492.5" cy="1060.5" r="1.5" fill="#B0B0B0"/>
<circle cx="1540.5" cy="1060.5" r="1.5" fill="#B0B0B0"/>
<circle cx="1588.5" cy="1060.5" r="1.5" fill="#B0B0B0"/>
<circle cx="1636.5" cy="1060.5" r="1.5" fill="#B0B0B0"/>
<circle cx="1684.5" cy="1060.5" r="1.5" fill="#B0B0B0"/>
<circle cx="28.5" cy="52.5" r="1.5" fill="#B0B0B0"/>
<circle cx="28.5" cy="52.5" r="1.5" fill="#B0B0B0"/>
<circle cx="76.5" cy="52.5" r="1.5" fill="#B0B0B0"/>
<circle cx="124.5" cy="52.5" r="1.5" fill="#B0B0B0"/>
<circle cx="172.5" cy="52.5" r="1.5" fill="#B0B0B0"/>
<circle cx="220.5" cy="52.5" r="1.5" fill="#B0B0B0"/>
<circle cx="268.5" cy="52.5" r="1.5" fill="#B0B0B0"/>
<circle cx="316.5" cy="52.5" r="1.5" fill="#B0B0B0"/>
<circle cx="364.5" cy="52.5" r="1.5" fill="#B0B0B0"/>
<circle cx="412.5" cy="52.5" r="1.5" fill="#B0B0B0"/>
<circle cx="460.5" cy="52.5" r="1.5" fill="#B0B0B0"/>
<circle cx="508.5" cy="52.5" r="1.5" fill="#B0B0B0"/>
<circle cx="556.5" cy="52.5" r="1.5" fill="#B0B0B0"/>
<circle cx="604.5" cy="52.5" r="1.5" fill="#B0B0B0"/>
<circle cx="652.5" cy="52.5" r="1.5" fill="#B0B0B0"/>
<circle cx="700.5" cy="52.5" r="1.5" fill="#B0B0B0"/>
<circle cx="748.5" cy="52.5" r="1.5" fill="#B0B0B0"/>
<circle cx="796.5" cy="52.5" r="1.5" fill="#B0B0B0"/>
<circle cx="844.5" cy="52.5" r="1.5" fill="#B0B0B0"/>
<circle cx="892.5" cy="52.5" r="1.5" fill="#B0B0B0"/>
<circle cx="940.5" cy="52.5" r="1.5" fill="#B0B0B0"/>
<circle cx="988.5" cy="52.5" r="1.5" fill="#B0B0B0"/>
<circle cx="1036.5" cy="52.5" r="1.5" fill="#B0B0B0"/>
<circle cx="1084.5" cy="52.5" r="1.5" fill="#B0B0B0"/>
<circle cx="1132.5" cy="52.5" r="1.5" fill="#B0B0B0"/>
<circle cx="1180.5" cy="52.5" r="1.5" fill="#B0B0B0"/>
<circle cx="1228.5" cy="52.5" r="1.5" fill="#B0B0B0"/>
<circle cx="1276.5" cy="52.5" r="1.5" fill="#B0B0B0"/>
<circle cx="1324.5" cy="52.5" r="1.5" fill="#B0B0B0"/>
<circle cx="1372.5" cy="52.5" r="1.5" fill="#B0B0B0"/>
<circle cx="1420.5" cy="52.5" r="1.5" fill="#B0B0B0"/>
<circle cx="1468.5" cy="52.5" r="1.5" fill="#B0B0B0"/>
<circle cx="1516.5" cy="52.5" r="1.5" fill="#B0B0B0"/>
<circle cx="1564.5" cy="52.5" r="1.5" fill="#B0B0B0"/>
<circle cx="1612.5" cy="52.5" r="1.5" fill="#B0B0B0"/>
<circle cx="1660.5" cy="52.5" r="1.5" fill="#B0B0B0"/>
<circle cx="1708.5" cy="52.5" r="1.5" fill="#B0B0B0"/>
<circle cx="28.5" cy="148.5" r="1.5" fill="#B0B0B0"/>
<circle cx="28.5" cy="148.5" r="1.5" fill="#B0B0B0"/>
<circle cx="76.5" cy="148.5" r="1.5" fill="#B0B0B0"/>
<circle cx="124.5" cy="148.5" r="1.5" fill="#B0B0B0"/>
<circle cx="172.5" cy="148.5" r="1.5" fill="#B0B0B0"/>
<circle cx="220.5" cy="148.5" r="1.5" fill="#B0B0B0"/>
<circle cx="268.5" cy="148.5" r="1.5" fill="#B0B0B0"/>
<circle cx="316.5" cy="148.5" r="1.5" fill="#B0B0B0"/>
<circle cx="364.5" cy="148.5" r="1.5" fill="#B0B0B0"/>
<circle cx="412.5" cy="148.5" r="1.5" fill="#B0B0B0"/>
<circle cx="460.5" cy="148.5" r="1.5" fill="#B0B0B0"/>
<circle cx="508.5" cy="148.5" r="1.5" fill="#B0B0B0"/>
<circle cx="556.5" cy="148.5" r="1.5" fill="#B0B0B0"/>
<circle cx="604.5" cy="148.5" r="1.5" fill="#B0B0B0"/>
<circle cx="652.5" cy="148.5" r="1.5" fill="#B0B0B0"/>
<circle cx="700.5" cy="148.5" r="1.5" fill="#B0B0B0"/>
<circle cx="748.5" cy="148.5" r="1.5" fill="#B0B0B0"/>
<circle cx="796.5" cy="148.5" r="1.5" fill="#B0B0B0"/>
<circle cx="844.5" cy="148.5" r="1.5" fill="#B0B0B0"/>
<circle cx="892.5" cy="148.5" r="1.5" fill="#B0B0B0"/>
<circle cx="940.5" cy="148.5" r="1.5" fill="#B0B0B0"/>
<circle cx="988.5" cy="148.5" r="1.5" fill="#B0B0B0"/>
<circle cx="1036.5" cy="148.5" r="1.5" fill="#B0B0B0"/>
<circle cx="1084.5" cy="148.5" r="1.5" fill="#B0B0B0"/>
<circle cx="1132.5" cy="148.5" r="1.5" fill="#B0B0B0"/>
<circle cx="1180.5" cy="148.5" r="1.5" fill="#B0B0B0"/>
<circle cx="1228.5" cy="148.5" r="1.5" fill="#B0B0B0"/>
<circle cx="1276.5" cy="148.5" r="1.5" fill="#B0B0B0"/>
<circle cx="1324.5" cy="148.5" r="1.5" fill="#B0B0B0"/>
<circle cx="1372.5" cy="148.5" r="1.5" fill="#B0B0B0"/>
<circle cx="1420.5" cy="148.5" r="1.5" fill="#B0B0B0"/>
<circle cx="1468.5" cy="148.5" r="1.5" fill="#B0B0B0"/>
<circle cx="1516.5" cy="148.5" r="1.5" fill="#B0B0B0"/>
<circle cx="1564.5" cy="148.5" r="1.5" fill="#B0B0B0"/>
<circle cx="1612.5" cy="148.5" r="1.5" fill="#B0B0B0"/>
<circle cx="1660.5" cy="148.5" r="1.5" fill="#B0B0B0"/>
<circle cx="1708.5" cy="148.5" r="1.5" fill="#B0B0B0"/>
<circle cx="28.5" cy="244.5" r="1.5" fill="#B0B0B0"/>
<circle cx="28.5" cy="244.5" r="1.5" fill="#B0B0B0"/>
<circle cx="76.5" cy="244.5" r="1.5" fill="#B0B0B0"/>
<circle cx="124.5" cy="244.5" r="1.5" fill="#B0B0B0"/>
<circle cx="172.5" cy="244.5" r="1.5" fill="#B0B0B0"/>
<circle cx="220.5" cy="244.5" r="1.5" fill="#B0B0B0"/>
<circle cx="268.5" cy="244.5" r="1.5" fill="#B0B0B0"/>
<circle cx="316.5" cy="244.5" r="1.5" fill="#B0B0B0"/>
<circle cx="364.5" cy="244.5" r="1.5" fill="#B0B0B0"/>
<circle cx="412.5" cy="244.5" r="1.5" fill="#B0B0B0"/>
<circle cx="460.5" cy="244.5" r="1.5" fill="#B0B0B0"/>
<circle cx="508.5" cy="244.5" r="1.5" fill="#B0B0B0"/>
<circle cx="556.5" cy="244.5" r="1.5" fill="#B0B0B0"/>
<circle cx="604.5" cy="244.5" r="1.5" fill="#B0B0B0"/>
<circle cx="652.5" cy="244.5" r="1.5" fill="#B0B0B0"/>
<circle cx="700.5" cy="244.5" r="1.5" fill="#B0B0B0"/>
<circle cx="748.5" cy="244.5" r="1.5" fill="#B0B0B0"/>
<circle cx="796.5" cy="244.5" r="1.5" fill="#B0B0B0"/>
<circle cx="844.5" cy="244.5" r="1.5" fill="#B0B0B0"/>
<circle cx="892.5" cy="244.5" r="1.5" fill="#B0B0B0"/>
<circle cx="940.5" cy="244.5" r="1.5" fill="#B0B0B0"/>
<circle cx="988.5" cy="244.5" r="1.5" fill="#B0B0B0"/>
<circle cx="1036.5" cy="244.5" r="1.5" fill="#B0B0B0"/>
<circle cx="1084.5" cy="244.5" r="1.5" fill="#B0B0B0"/>
<circle cx="1132.5" cy="244.5" r="1.5" fill="#B0B0B0"/>
<circle cx="1180.5" cy="244.5" r="1.5" fill="#B0B0B0"/>
<circle cx="1228.5" cy="244.5" r="1.5" fill="#B0B0B0"/>
<circle cx="1276.5" cy="244.5" r="1.5" fill="#B0B0B0"/>
<circle cx="1324.5" cy="244.5" r="1.5" fill="#B0B0B0"/>
<circle cx="1372.5" cy="244.5" r="1.5" fill="#B0B0B0"/>
<circle cx="1420.5" cy="244.5" r="1.5" fill="#B0B0B0"/>
<circle cx="1468.5" cy="244.5" r="1.5" fill="#B0B0B0"/>
<circle cx="1516.5" cy="244.5" r="1.5" fill="#B0B0B0"/>
<circle cx="1564.5" cy="244.5" r="1.5" fill="#B0B0B0"/>
<circle cx="1612.5" cy="244.5" r="1.5" fill="#B0B0B0"/>
<circle cx="1660.5" cy="244.5" r="1.5" fill="#B0B0B0"/>
<circle cx="1708.5" cy="244.5" r="1.5" fill="#B0B0B0"/>
<circle cx="28.5" cy="340.5" r="1.5" fill="#B0B0B0"/>
<circle cx="28.5" cy="340.5" r="1.5" fill="#B0B0B0"/>
<circle cx="76.5" cy="340.5" r="1.5" fill="#B0B0B0"/>
<circle cx="124.5" cy="340.5" r="1.5" fill="#B0B0B0"/>
<circle cx="172.5" cy="340.5" r="1.5" fill="#B0B0B0"/>
<circle cx="220.5" cy="340.5" r="1.5" fill="#B0B0B0"/>
<circle cx="268.5" cy="340.5" r="1.5" fill="#B0B0B0"/>
<circle cx="316.5" cy="340.5" r="1.5" fill="#B0B0B0"/>
<circle cx="364.5" cy="340.5" r="1.5" fill="#B0B0B0"/>
<circle cx="412.5" cy="340.5" r="1.5" fill="#B0B0B0"/>
<circle cx="460.5" cy="340.5" r="1.5" fill="#B0B0B0"/>
<circle cx="508.5" cy="340.5" r="1.5" fill="#B0B0B0"/>
<circle cx="556.5" cy="340.5" r="1.5" fill="#B0B0B0"/>
<circle cx="604.5" cy="340.5" r="1.5" fill="#B0B0B0"/>
<circle cx="652.5" cy="340.5" r="1.5" fill="#B0B0B0"/>
<circle cx="700.5" cy="340.5" r="1.5" fill="#B0B0B0"/>
<circle cx="748.5" cy="340.5" r="1.5" fill="#B0B0B0"/>
<circle cx="796.5" cy="340.5" r="1.5" fill="#B0B0B0"/>
<circle cx="844.5" cy="340.5" r="1.5" fill="#B0B0B0"/>
<circle cx="892.5" cy="340.5" r="1.5" fill="#B0B0B0"/>
<circle cx="940.5" cy="340.5" r="1.5" fill="#B0B0B0"/>
<circle cx="988.5" cy="340.5" r="1.5" fill="#B0B0B0"/>
<circle cx="1036.5" cy="340.5" r="1.5" fill="#B0B0B0"/>
<circle cx="1084.5" cy="340.5" r="1.5" fill="#B0B0B0"/>
<circle cx="1132.5" cy="340.5" r="1.5" fill="#B0B0B0"/>
<circle cx="1180.5" cy="340.5" r="1.5" fill="#B0B0B0"/>
<circle cx="1228.5" cy="340.5" r="1.5" fill="#B0B0B0"/>
<circle cx="1276.5" cy="340.5" r="1.5" fill="#B0B0B0"/>
<circle cx="1324.5" cy="340.5" r="1.5" fill="#B0B0B0"/>
<circle cx="1372.5" cy="340.5" r="1.5" fill="#B0B0B0"/>
<circle cx="1420.5" cy="340.5" r="1.5" fill="#B0B0B0"/>
<circle cx="1468.5" cy="340.5" r="1.5" fill="#B0B0B0"/>
<circle cx="1516.5" cy="340.5" r="1.5" fill="#B0B0B0"/>
<circle cx="1564.5" cy="340.5" r="1.5" fill="#B0B0B0"/>
<circle cx="1612.5" cy="340.5" r="1.5" fill="#B0B0B0"/>
<circle cx="1660.5" cy="340.5" r="1.5" fill="#B0B0B0"/>
<circle cx="1708.5" cy="340.5" r="1.5" fill="#B0B0B0"/>
<circle cx="28.5" cy="436.5" r="1.5" fill="#B0B0B0"/>
<circle cx="28.5" cy="436.5" r="1.5" fill="#B0B0B0"/>
<circle cx="76.5" cy="436.5" r="1.5" fill="#B0B0B0"/>
<circle cx="124.5" cy="436.5" r="1.5" fill="#B0B0B0"/>
<circle cx="172.5" cy="436.5" r="1.5" fill="#B0B0B0"/>
<circle cx="220.5" cy="436.5" r="1.5" fill="#B0B0B0"/>
<circle cx="268.5" cy="436.5" r="1.5" fill="#B0B0B0"/>
<circle cx="316.5" cy="436.5" r="1.5" fill="#B0B0B0"/>
<circle cx="364.5" cy="436.5" r="1.5" fill="#B0B0B0"/>
<circle cx="412.5" cy="436.5" r="1.5" fill="#B0B0B0"/>
<circle cx="460.5" cy="436.5" r="1.5" fill="#B0B0B0"/>
<circle cx="508.5" cy="436.5" r="1.5" fill="#B0B0B0"/>
<circle cx="556.5" cy="436.5" r="1.5" fill="#B0B0B0"/>
<circle cx="604.5" cy="436.5" r="1.5" fill="#B0B0B0"/>
<circle cx="652.5" cy="436.5" r="1.5" fill="#B0B0B0"/>
<circle cx="700.5" cy="436.5" r="1.5" fill="#B0B0B0"/>
<circle cx="748.5" cy="436.5" r="1.5" fill="#B0B0B0"/>
<circle cx="796.5" cy="436.5" r="1.5" fill="#B0B0B0"/>
<circle cx="844.5" cy="436.5" r="1.5" fill="#B0B0B0"/>
<circle cx="892.5" cy="436.5" r="1.5" fill="#B0B0B0"/>
<circle cx="940.5" cy="436.5" r="1.5" fill="#B0B0B0"/>
<circle cx="988.5" cy="436.5" r="1.5" fill="#B0B0B0"/>
<circle cx="1036.5" cy="436.5" r="1.5" fill="#B0B0B0"/>
<circle cx="1084.5" cy="436.5" r="1.5" fill="#B0B0B0"/>
<circle cx="1132.5" cy="436.5" r="1.5" fill="#B0B0B0"/>
<circle cx="1180.5" cy="436.5" r="1.5" fill="#B0B0B0"/>
<circle cx="1228.5" cy="436.5" r="1.5" fill="#B0B0B0"/>
<circle cx="1276.5" cy="436.5" r="1.5" fill="#B0B0B0"/>
<circle cx="1324.5" cy="436.5" r="1.5" fill="#B0B0B0"/>
<circle cx="1372.5" cy="436.5" r="1.5" fill="#B0B0B0"/>
<circle cx="1420.5" cy="436.5" r="1.5" fill="#B0B0B0"/>
<circle cx="1468.5" cy="436.5" r="1.5" fill="#B0B0B0"/>
<circle cx="1516.5" cy="436.5" r="1.5" fill="#B0B0B0"/>
<circle cx="1564.5" cy="436.5" r="1.5" fill="#B0B0B0"/>
<circle cx="1612.5" cy="436.5" r="1.5" fill="#B0B0B0"/>
<circle cx="1660.5" cy="436.5" r="1.5" fill="#B0B0B0"/>
<circle cx="1708.5" cy="436.5" r="1.5" fill="#B0B0B0"/>
<circle cx="28.5" cy="532.5" r="1.5" fill="#B0B0B0"/>
<circle cx="28.5" cy="532.5" r="1.5" fill="#B0B0B0"/>
<circle cx="76.5" cy="532.5" r="1.5" fill="#B0B0B0"/>
<circle cx="124.5" cy="532.5" r="1.5" fill="#B0B0B0"/>
<circle cx="172.5" cy="532.5" r="1.5" fill="#B0B0B0"/>
<circle cx="220.5" cy="532.5" r="1.5" fill="#B0B0B0"/>
<circle cx="268.5" cy="532.5" r="1.5" fill="#B0B0B0"/>
<circle cx="316.5" cy="532.5" r="1.5" fill="#B0B0B0"/>
<circle cx="364.5" cy="532.5" r="1.5" fill="#B0B0B0"/>
<circle cx="412.5" cy="532.5" r="1.5" fill="#B0B0B0"/>
<circle cx="460.5" cy="532.5" r="1.5" fill="#B0B0B0"/>
<circle cx="508.5" cy="532.5" r="1.5" fill="#B0B0B0"/>
<circle cx="556.5" cy="532.5" r="1.5" fill="#B0B0B0"/>
<circle cx="604.5" cy="532.5" r="1.5" fill="#B0B0B0"/>
<circle cx="652.5" cy="532.5" r="1.5" fill="#B0B0B0"/>
<circle cx="700.5" cy="532.5" r="1.5" fill="#B0B0B0"/>
<circle cx="748.5" cy="532.5" r="1.5" fill="#B0B0B0"/>
<circle cx="796.5" cy="532.5" r="1.5" fill="#B0B0B0"/>
<circle cx="844.5" cy="532.5" r="1.5" fill="#B0B0B0"/>
<circle cx="892.5" cy="532.5" r="1.5" fill="#B0B0B0"/>
<circle cx="940.5" cy="532.5" r="1.5" fill="#B0B0B0"/>
<circle cx="988.5" cy="532.5" r="1.5" fill="#B0B0B0"/>
<circle cx="1036.5" cy="532.5" r="1.5" fill="#B0B0B0"/>
<circle cx="1084.5" cy="532.5" r="1.5" fill="#B0B0B0"/>
<circle cx="1132.5" cy="532.5" r="1.5" fill="#B0B0B0"/>
<circle cx="1180.5" cy="532.5" r="1.5" fill="#B0B0B0"/>
<circle cx="1228.5" cy="532.5" r="1.5" fill="#B0B0B0"/>
<circle cx="1276.5" cy="532.5" r="1.5" fill="#B0B0B0"/>
<circle cx="1324.5" cy="532.5" r="1.5" fill="#B0B0B0"/>
<circle cx="1372.5" cy="532.5" r="1.5" fill="#B0B0B0"/>
<circle cx="1420.5" cy="532.5" r="1.5" fill="#B0B0B0"/>
<circle cx="1468.5" cy="532.5" r="1.5" fill="#B0B0B0"/>
<circle cx="1516.5" cy="532.5" r="1.5" fill="#B0B0B0"/>
<circle cx="1564.5" cy="532.5" r="1.5" fill="#B0B0B0"/>
<circle cx="1612.5" cy="532.5" r="1.5" fill="#B0B0B0"/>
<circle cx="1660.5" cy="532.5" r="1.5" fill="#B0B0B0"/>
<circle cx="1708.5" cy="532.5" r="1.5" fill="#B0B0B0"/>
<circle cx="28.5" cy="628.5" r="1.5" fill="#B0B0B0"/>
<circle cx="28.5" cy="628.5" r="1.5" fill="#B0B0B0"/>
<circle cx="76.5" cy="628.5" r="1.5" fill="#B0B0B0"/>
<circle cx="124.5" cy="628.5" r="1.5" fill="#B0B0B0"/>
<circle cx="172.5" cy="628.5" r="1.5" fill="#B0B0B0"/>
<circle cx="220.5" cy="628.5" r="1.5" fill="#B0B0B0"/>
<circle cx="268.5" cy="628.5" r="1.5" fill="#B0B0B0"/>
<circle cx="316.5" cy="628.5" r="1.5" fill="#B0B0B0"/>
<circle cx="364.5" cy="628.5" r="1.5" fill="#B0B0B0"/>
<circle cx="412.5" cy="628.5" r="1.5" fill="#B0B0B0"/>
<circle cx="460.5" cy="628.5" r="1.5" fill="#B0B0B0"/>
<circle cx="508.5" cy="628.5" r="1.5" fill="#B0B0B0"/>
<circle cx="556.5" cy="628.5" r="1.5" fill="#B0B0B0"/>
<circle cx="604.5" cy="628.5" r="1.5" fill="#B0B0B0"/>
<circle cx="652.5" cy="628.5" r="1.5" fill="#B0B0B0"/>
<circle cx="700.5" cy="628.5" r="1.5" fill="#B0B0B0"/>
<circle cx="748.5" cy="628.5" r="1.5" fill="#B0B0B0"/>
<circle cx="796.5" cy="628.5" r="1.5" fill="#B0B0B0"/>
<circle cx="844.5" cy="628.5" r="1.5" fill="#B0B0B0"/>
<circle cx="892.5" cy="628.5" r="1.5" fill="#B0B0B0"/>
<circle cx="940.5" cy="628.5" r="1.5" fill="#B0B0B0"/>
<circle cx="988.5" cy="628.5" r="1.5" fill="#B0B0B0"/>
<circle cx="1036.5" cy="628.5" r="1.5" fill="#B0B0B0"/>
<circle cx="1084.5" cy="628.5" r="1.5" fill="#B0B0B0"/>
<circle cx="1132.5" cy="628.5" r="1.5" fill="#B0B0B0"/>
<circle cx="1180.5" cy="628.5" r="1.5" fill="#B0B0B0"/>
<circle cx="1228.5" cy="628.5" r="1.5" fill="#B0B0B0"/>
<circle cx="1276.5" cy="628.5" r="1.5" fill="#B0B0B0"/>
<circle cx="1324.5" cy="628.5" r="1.5" fill="#B0B0B0"/>
<circle cx="1372.5" cy="628.5" r="1.5" fill="#B0B0B0"/>
<circle cx="1420.5" cy="628.5" r="1.5" fill="#B0B0B0"/>
<circle cx="1468.5" cy="628.5" r="1.5" fill="#B0B0B0"/>
<circle cx="1516.5" cy="628.5" r="1.5" fill="#B0B0B0"/>
<circle cx="1564.5" cy="628.5" r="1.5" fill="#B0B0B0"/>
<circle cx="1612.5" cy="628.5" r="1.5" fill="#B0B0B0"/>
<circle cx="1660.5" cy="628.5" r="1.5" fill="#B0B0B0"/>
<circle cx="1708.5" cy="628.5" r="1.5" fill="#B0B0B0"/>
<circle cx="28.5" cy="724.5" r="1.5" fill="#B0B0B0"/>
<circle cx="28.5" cy="724.5" r="1.5" fill="#B0B0B0"/>
<circle cx="76.5" cy="724.5" r="1.5" fill="#B0B0B0"/>
<circle cx="124.5" cy="724.5" r="1.5" fill="#B0B0B0"/>
<circle cx="172.5" cy="724.5" r="1.5" fill="#B0B0B0"/>
<circle cx="220.5" cy="724.5" r="1.5" fill="#B0B0B0"/>
<circle cx="268.5" cy="724.5" r="1.5" fill="#B0B0B0"/>
<circle cx="316.5" cy="724.5" r="1.5" fill="#B0B0B0"/>
<circle cx="364.5" cy="724.5" r="1.5" fill="#B0B0B0"/>
<circle cx="412.5" cy="724.5" r="1.5" fill="#B0B0B0"/>
<circle cx="460.5" cy="724.5" r="1.5" fill="#B0B0B0"/>
<circle cx="508.5" cy="724.5" r="1.5" fill="#B0B0B0"/>
<circle cx="556.5" cy="724.5" r="1.5" fill="#B0B0B0"/>
<circle cx="604.5" cy="724.5" r="1.5" fill="#B0B0B0"/>
<circle cx="652.5" cy="724.5" r="1.5" fill="#B0B0B0"/>
<circle cx="700.5" cy="724.5" r="1.5" fill="#B0B0B0"/>
<circle cx="748.5" cy="724.5" r="1.5" fill="#B0B0B0"/>
<circle cx="796.5" cy="724.5" r="1.5" fill="#B0B0B0"/>
<circle cx="844.5" cy="724.5" r="1.5" fill="#B0B0B0"/>
<circle cx="892.5" cy="724.5" r="1.5" fill="#B0B0B0"/>
<circle cx="940.5" cy="724.5" r="1.5" fill="#B0B0B0"/>
<circle cx="988.5" cy="724.5" r="1.5" fill="#B0B0B0"/>
<circle cx="1036.5" cy="724.5" r="1.5" fill="#B0B0B0"/>
<circle cx="1084.5" cy="724.5" r="1.5" fill="#B0B0B0"/>
<circle cx="1132.5" cy="724.5" r="1.5" fill="#B0B0B0"/>
<circle cx="1180.5" cy="724.5" r="1.5" fill="#B0B0B0"/>
<circle cx="1228.5" cy="724.5" r="1.5" fill="#B0B0B0"/>
<circle cx="1276.5" cy="724.5" r="1.5" fill="#B0B0B0"/>
<circle cx="1324.5" cy="724.5" r="1.5" fill="#B0B0B0"/>
<circle cx="1372.5" cy="724.5" r="1.5" fill="#B0B0B0"/>
<circle cx="1420.5" cy="724.5" r="1.5" fill="#B0B0B0"/>
<circle cx="1468.5" cy="724.5" r="1.5" fill="#B0B0B0"/>
<circle cx="1516.5" cy="724.5" r="1.5" fill="#B0B0B0"/>
<circle cx="1564.5" cy="724.5" r="1.5" fill="#B0B0B0"/>
<circle cx="1612.5" cy="724.5" r="1.5" fill="#B0B0B0"/>
<circle cx="1660.5" cy="724.5" r="1.5" fill="#B0B0B0"/>
<circle cx="1708.5" cy="724.5" r="1.5" fill="#B0B0B0"/>
<circle cx="28.5" cy="820.5" r="1.5" fill="#B0B0B0"/>
<circle cx="28.5" cy="820.5" r="1.5" fill="#B0B0B0"/>
<circle cx="76.5" cy="820.5" r="1.5" fill="#B0B0B0"/>
<circle cx="124.5" cy="820.5" r="1.5" fill="#B0B0B0"/>
<circle cx="172.5" cy="820.5" r="1.5" fill="#B0B0B0"/>
<circle cx="220.5" cy="820.5" r="1.5" fill="#B0B0B0"/>
<circle cx="268.5" cy="820.5" r="1.5" fill="#B0B0B0"/>
<circle cx="316.5" cy="820.5" r="1.5" fill="#B0B0B0"/>
<circle cx="364.5" cy="820.5" r="1.5" fill="#B0B0B0"/>
<circle cx="412.5" cy="820.5" r="1.5" fill="#B0B0B0"/>
<circle cx="460.5" cy="820.5" r="1.5" fill="#B0B0B0"/>
<circle cx="508.5" cy="820.5" r="1.5" fill="#B0B0B0"/>
<circle cx="556.5" cy="820.5" r="1.5" fill="#B0B0B0"/>
<circle cx="604.5" cy="820.5" r="1.5" fill="#B0B0B0"/>
<circle cx="652.5" cy="820.5" r="1.5" fill="#B0B0B0"/>
<circle cx="700.5" cy="820.5" r="1.5" fill="#B0B0B0"/>
<circle cx="748.5" cy="820.5" r="1.5" fill="#B0B0B0"/>
<circle cx="796.5" cy="820.5" r="1.5" fill="#B0B0B0"/>
<circle cx="844.5" cy="820.5" r="1.5" fill="#B0B0B0"/>
<circle cx="892.5" cy="820.5" r="1.5" fill="#B0B0B0"/>
<circle cx="940.5" cy="820.5" r="1.5" fill="#B0B0B0"/>
<circle cx="988.5" cy="820.5" r="1.5" fill="#B0B0B0"/>
<circle cx="1036.5" cy="820.5" r="1.5" fill="#B0B0B0"/>
<circle cx="1084.5" cy="820.5" r="1.5" fill="#B0B0B0"/>
<circle cx="1132.5" cy="820.5" r="1.5" fill="#B0B0B0"/>
<circle cx="1180.5" cy="820.5" r="1.5" fill="#B0B0B0"/>
<circle cx="1228.5" cy="820.5" r="1.5" fill="#B0B0B0"/>
<circle cx="1276.5" cy="820.5" r="1.5" fill="#B0B0B0"/>
<circle cx="1324.5" cy="820.5" r="1.5" fill="#B0B0B0"/>
<circle cx="1372.5" cy="820.5" r="1.5" fill="#B0B0B0"/>
<circle cx="1420.5" cy="820.5" r="1.5" fill="#B0B0B0"/>
<circle cx="1468.5" cy="820.5" r="1.5" fill="#B0B0B0"/>
<circle cx="1516.5" cy="820.5" r="1.5" fill="#B0B0B0"/>
<circle cx="1564.5" cy="820.5" r="1.5" fill="#B0B0B0"/>
<circle cx="1612.5" cy="820.5" r="1.5" fill="#B0B0B0"/>
<circle cx="1660.5" cy="820.5" r="1.5" fill="#B0B0B0"/>
<circle cx="1708.5" cy="820.5" r="1.5" fill="#B0B0B0"/>
<circle cx="28.5" cy="916.5" r="1.5" fill="#B0B0B0"/>
<circle cx="28.5" cy="916.5" r="1.5" fill="#B0B0B0"/>
<circle cx="76.5" cy="916.5" r="1.5" fill="#B0B0B0"/>
<circle cx="124.5" cy="916.5" r="1.5" fill="#B0B0B0"/>
<circle cx="172.5" cy="916.5" r="1.5" fill="#B0B0B0"/>
<circle cx="220.5" cy="916.5" r="1.5" fill="#B0B0B0"/>
<circle cx="268.5" cy="916.5" r="1.5" fill="#B0B0B0"/>
<circle cx="316.5" cy="916.5" r="1.5" fill="#B0B0B0"/>
<circle cx="364.5" cy="916.5" r="1.5" fill="#B0B0B0"/>
<circle cx="412.5" cy="916.5" r="1.5" fill="#B0B0B0"/>
<circle cx="460.5" cy="916.5" r="1.5" fill="#B0B0B0"/>
<circle cx="508.5" cy="916.5" r="1.5" fill="#B0B0B0"/>
<circle cx="556.5" cy="916.5" r="1.5" fill="#B0B0B0"/>
<circle cx="604.5" cy="916.5" r="1.5" fill="#B0B0B0"/>
<circle cx="652.5" cy="916.5" r="1.5" fill="#B0B0B0"/>
<circle cx="700.5" cy="916.5" r="1.5" fill="#B0B0B0"/>
<circle cx="748.5" cy="916.5" r="1.5" fill="#B0B0B0"/>
<circle cx="796.5" cy="916.5" r="1.5" fill="#B0B0B0"/>
<circle cx="844.5" cy="916.5" r="1.5" fill="#B0B0B0"/>
<circle cx="892.5" cy="916.5" r="1.5" fill="#B0B0B0"/>
<circle cx="940.5" cy="916.5" r="1.5" fill="#B0B0B0"/>
<circle cx="988.5" cy="916.5" r="1.5" fill="#B0B0B0"/>
<circle cx="1036.5" cy="916.5" r="1.5" fill="#B0B0B0"/>
<circle cx="1084.5" cy="916.5" r="1.5" fill="#B0B0B0"/>
<circle cx="1132.5" cy="916.5" r="1.5" fill="#B0B0B0"/>
<circle cx="1180.5" cy="916.5" r="1.5" fill="#B0B0B0"/>
<circle cx="1228.5" cy="916.5" r="1.5" fill="#B0B0B0"/>
<circle cx="1276.5" cy="916.5" r="1.5" fill="#B0B0B0"/>
<circle cx="1324.5" cy="916.5" r="1.5" fill="#B0B0B0"/>
<circle cx="1372.5" cy="916.5" r="1.5" fill="#B0B0B0"/>
<circle cx="1420.5" cy="916.5" r="1.5" fill="#B0B0B0"/>
<circle cx="1468.5" cy="916.5" r="1.5" fill="#B0B0B0"/>
<circle cx="1516.5" cy="916.5" r="1.5" fill="#B0B0B0"/>
<circle cx="1564.5" cy="916.5" r="1.5" fill="#B0B0B0"/>
<circle cx="1612.5" cy="916.5" r="1.5" fill="#B0B0B0"/>
<circle cx="1660.5" cy="916.5" r="1.5" fill="#B0B0B0"/>
<circle cx="1708.5" cy="916.5" r="1.5" fill="#B0B0B0"/>
<circle cx="28.5" cy="1012.5" r="1.5" fill="#B0B0B0"/>
<circle cx="28.5" cy="1012.5" r="1.5" fill="#B0B0B0"/>
<circle cx="76.5" cy="1012.5" r="1.5" fill="#B0B0B0"/>
<circle cx="124.5" cy="1012.5" r="1.5" fill="#B0B0B0"/>
<circle cx="172.5" cy="1012.5" r="1.5" fill="#B0B0B0"/>
<circle cx="220.5" cy="1012.5" r="1.5" fill="#B0B0B0"/>
<circle cx="268.5" cy="1012.5" r="1.5" fill="#B0B0B0"/>
<circle cx="316.5" cy="1012.5" r="1.5" fill="#B0B0B0"/>
<circle cx="364.5" cy="1012.5" r="1.5" fill="#B0B0B0"/>
<circle cx="412.5" cy="1012.5" r="1.5" fill="#B0B0B0"/>
<circle cx="460.5" cy="1012.5" r="1.5" fill="#B0B0B0"/>
<circle cx="508.5" cy="1012.5" r="1.5" fill="#B0B0B0"/>
<circle cx="556.5" cy="1012.5" r="1.5" fill="#B0B0B0"/>
<circle cx="604.5" cy="1012.5" r="1.5" fill="#B0B0B0"/>
<circle cx="652.5" cy="1012.5" r="1.5" fill="#B0B0B0"/>
<circle cx="700.5" cy="1012.5" r="1.5" fill="#B0B0B0"/>
<circle cx="748.5" cy="1012.5" r="1.5" fill="#B0B0B0"/>
<circle cx="796.5" cy="1012.5" r="1.5" fill="#B0B0B0"/>
<circle cx="844.5" cy="1012.5" r="1.5" fill="#B0B0B0"/>
<circle cx="892.5" cy="1012.5" r="1.5" fill="#B0B0B0"/>
<circle cx="940.5" cy="1012.5" r="1.5" fill="#B0B0B0"/>
<circle cx="988.5" cy="1012.5" r="1.5" fill="#B0B0B0"/>
<circle cx="1036.5" cy="1012.5" r="1.5" fill="#B0B0B0"/>
<circle cx="1084.5" cy="1012.5" r="1.5" fill="#B0B0B0"/>
<circle cx="1132.5" cy="1012.5" r="1.5" fill="#B0B0B0"/>
<circle cx="1180.5" cy="1012.5" r="1.5" fill="#B0B0B0"/>
<circle cx="1228.5" cy="1012.5" r="1.5" fill="#B0B0B0"/>
<circle cx="1276.5" cy="1012.5" r="1.5" fill="#B0B0B0"/>
<circle cx="1324.5" cy="1012.5" r="1.5" fill="#B0B0B0"/>
<circle cx="1372.5" cy="1012.5" r="1.5" fill="#B0B0B0"/>
<circle cx="1420.5" cy="1012.5" r="1.5" fill="#B0B0B0"/>
<circle cx="1468.5" cy="1012.5" r="1.5" fill="#B0B0B0"/>
<circle cx="1516.5" cy="1012.5" r="1.5" fill="#B0B0B0"/>
<circle cx="1564.5" cy="1012.5" r="1.5" fill="#B0B0B0"/>
<circle cx="1612.5" cy="1012.5" r="1.5" fill="#B0B0B0"/>
<circle cx="1660.5" cy="1012.5" r="1.5" fill="#B0B0B0"/>
<circle cx="1708.5" cy="1012.5" r="1.5" fill="#B0B0B0"/>
<circle cx="28.5" cy="1108.5" r="1.5" fill="#B0B0B0"/>
<circle cx="28.5" cy="1108.5" r="1.5" fill="#B0B0B0"/>
<circle cx="76.5" cy="1108.5" r="1.5" fill="#B0B0B0"/>
<circle cx="124.5" cy="1108.5" r="1.5" fill="#B0B0B0"/>
<circle cx="172.5" cy="1108.5" r="1.5" fill="#B0B0B0"/>
<circle cx="220.5" cy="1108.5" r="1.5" fill="#B0B0B0"/>
<circle cx="268.5" cy="1108.5" r="1.5" fill="#B0B0B0"/>
<circle cx="316.5" cy="1108.5" r="1.5" fill="#B0B0B0"/>
<circle cx="364.5" cy="1108.5" r="1.5" fill="#B0B0B0"/>
<circle cx="412.5" cy="1108.5" r="1.5" fill="#B0B0B0"/>
<circle cx="460.5" cy="1108.5" r="1.5" fill="#B0B0B0"/>
<circle cx="508.5" cy="1108.5" r="1.5" fill="#B0B0B0"/>
<circle cx="556.5" cy="1108.5" r="1.5" fill="#B0B0B0"/>
<circle cx="604.5" cy="1108.5" r="1.5" fill="#B0B0B0"/>
<circle cx="652.5" cy="1108.5" r="1.5" fill="#B0B0B0"/>
<circle cx="700.5" cy="1108.5" r="1.5" fill="#B0B0B0"/>
<circle cx="748.5" cy="1108.5" r="1.5" fill="#B0B0B0"/>
<circle cx="796.5" cy="1108.5" r="1.5" fill="#B0B0B0"/>
<circle cx="844.5" cy="1108.5" r="1.5" fill="#B0B0B0"/>
<circle cx="892.5" cy="1108.5" r="1.5" fill="#B0B0B0"/>
<circle cx="940.5" cy="1108.5" r="1.5" fill="#B0B0B0"/>
<circle cx="988.5" cy="1108.5" r="1.5" fill="#B0B0B0"/>
<circle cx="1036.5" cy="1108.5" r="1.5" fill="#B0B0B0"/>
<circle cx="1084.5" cy="1108.5" r="1.5" fill="#B0B0B0"/>
<circle cx="1132.5" cy="1108.5" r="1.5" fill="#B0B0B0"/>
<circle cx="1180.5" cy="1108.5" r="1.5" fill="#B0B0B0"/>
<circle cx="1228.5" cy="1108.5" r="1.5" fill="#B0B0B0"/>
<circle cx="1276.5" cy="1108.5" r="1.5" fill="#B0B0B0"/>
<circle cx="1324.5" cy="1108.5" r="1.5" fill="#B0B0B0"/>
<circle cx="1372.5" cy="1108.5" r="1.5" fill="#B0B0B0"/>
<circle cx="1420.5" cy="1108.5" r="1.5" fill="#B0B0B0"/>
<circle cx="1468.5" cy="1108.5" r="1.5" fill="#B0B0B0"/>
<circle cx="1516.5" cy="1108.5" r="1.5" fill="#B0B0B0"/>
<circle cx="1564.5" cy="1108.5" r="1.5" fill="#B0B0B0"/>
<circle cx="1612.5" cy="1108.5" r="1.5" fill="#B0B0B0"/>
<circle cx="1660.5" cy="1108.5" r="1.5" fill="#B0B0B0"/>
<circle cx="1708.5" cy="1108.5" r="1.5" fill="#B0B0B0"/>
</svg>
